<?xml version="1.0" encoding="UTF-8" ?>
<!DOCTYPE svg PUBLIC "-//W3C//DTD SVG 1.1//EN" "http://www.w3.org/Graphics/SVG/1.1/DTD/svg11.dtd">
<svg width="133pt" height="129pt" viewBox="0 0 133 129" version="1.1" xmlns="http://www.w3.org/2000/svg">
<g id="#ffffffff">
</g>
<g id="#231f20ff">
<path fill="#231f20" opacity="1.00" d=" M 35.98 41.99 C 37.52 38.18 40.31 35.06 42.89 31.93 C 42.57 38.22 42.09 45.56 36.89 49.94 C 36.19 47.39 34.97 44.63 35.98 41.99 Z" />
<path fill="#231f20" opacity="1.00" d=" M 103.66 31.85 C 106.25 34.79 108.89 37.81 110.52 41.40 C 111.83 44.11 110.53 47.07 110.07 49.82 C 104.39 45.80 104.36 38.10 103.66 31.85 Z" />
<path fill="#231f20" opacity="1.00" d=" M 30.70 42.03 C 33.96 43.90 35.51 47.48 36.63 50.89 C 38.82 48.97 41.33 47.18 44.41 47.39 C 44.77 47.09 45.48 46.49 45.84 46.20 C 45.59 47.46 45.00 48.47 43.59 48.56 C 43.60 51.77 41.08 54.55 38.05 55.36 C 34.73 57.19 32.23 53.50 30.67 51.06 C 30.12 48.07 31.69 45.03 30.70 42.03 Z" />
<path fill="#231f20" opacity="1.00" d=" M 110.19 50.88 C 111.07 47.39 112.96 44.29 115.62 41.88 C 114.93 45.46 117.76 49.62 115.02 52.66 C 113.86 54.06 112.49 55.25 111.23 56.56 C 109.00 55.26 106.03 54.77 104.58 52.43 C 103.30 50.37 101.97 48.33 100.38 46.50 C 103.94 47.20 107.55 48.23 110.19 50.88 Z" />
<path fill="#231f20" opacity="1.00" d=" M 111.06 59.83 C 112.93 56.29 115.32 52.94 118.87 50.92 C 118.32 54.00 118.46 57.22 117.41 60.20 C 116.21 62.32 113.85 63.31 111.96 64.69 C 110.07 63.75 107.88 63.22 106.34 61.72 C 104.90 59.50 103.72 57.11 102.06 55.04 C 105.02 55.29 107.83 56.22 110.30 57.88 C 110.49 58.37 110.87 59.34 111.06 59.83 Z" />
<path fill="#231f20" opacity="1.00" d=" M 27.63 50.89 C 31.11 52.76 34.05 55.81 35.01 59.73 C 36.92 56.44 40.71 56.18 44.11 56.15 C 43.38 56.94 42.67 57.74 41.97 58.55 C 41.48 58.47 40.50 58.30 40.01 58.22 C 40.51 59.45 40.74 60.73 40.71 62.05 C 38.56 62.96 36.43 63.92 34.33 64.93 C 34.44 64.28 34.66 62.99 34.77 62.34 C 33.31 62.40 31.37 63.25 30.41 61.66 C 27.70 58.76 29.00 54.37 27.63 50.89 Z" />
<path fill="#231f20" opacity="1.00" d=" M 27.51 66.36 C 27.16 64.28 26.68 62.24 26.20 60.19 C 29.40 61.90 32.25 64.25 33.84 67.57 C 34.25 67.62 35.06 67.71 35.47 67.76 C 36.48 66.45 37.61 65.24 38.81 64.09 C 39.52 64.17 40.95 64.32 41.67 64.40 C 41.61 65.43 41.50 67.48 41.44 68.51 L 40.35 68.32 C 40.40 69.01 40.50 70.38 40.55 71.07 C 38.91 71.86 37.44 74.54 35.38 73.06 C 35.88 74.71 36.35 76.37 36.77 78.04 C 37.84 74.29 40.85 71.21 44.56 70.03 C 43.27 72.85 43.61 75.97 43.06 78.93 C 41.82 81.54 39.36 83.32 37.97 85.85 L 37.84 84.35 C 35.13 84.18 31.91 84.20 29.95 81.96 C 28.35 80.08 28.56 77.46 28.61 75.17 L 27.72 75.68 C 26.90 74.43 26.07 73.20 25.26 71.96 C 29.52 72.84 33.10 75.50 35.85 78.80 C 36.71 74.93 33.42 73.40 31.09 71.47 C 30.65 71.51 29.76 71.59 29.32 71.64 L 29.85 70.12 L 28.51 70.62 C 28.53 69.19 28.54 67.76 28.57 66.33 L 27.51 66.36 Z" />
<path fill="#231f20" opacity="1.00" d=" M 111.93 67.91 C 114.01 64.53 117.20 62.09 120.59 60.14 C 119.56 63.22 119.42 66.47 118.66 69.61 C 117.54 72.76 113.82 73.42 111.19 74.89 C 108.91 72.86 105.54 71.35 105.09 67.99 C 104.58 65.87 103.82 63.83 102.94 61.83 C 106.56 62.81 109.43 65.24 111.93 67.91 Z" />
<path fill="#231f20" opacity="1.00" d=" M 102.27 69.81 C 105.35 71.40 108.51 73.53 109.44 77.09 L 110.51 74.93 C 110.57 75.76 110.70 77.41 110.76 78.23 C 114.02 75.72 117.18 72.85 121.33 71.92 C 119.57 74.87 118.75 78.22 117.25 81.28 C 115.53 84.08 111.88 84.28 108.95 84.35 L 109.21 85.70 C 107.34 83.53 105.14 81.60 103.68 79.11 C 103.27 76.00 103.33 72.81 102.27 69.81 Z" />
<path fill="#231f20" opacity="1.00" d=" M 41.02 87.86 C 40.36 83.59 43.08 80.09 46.28 77.67 C 46.16 80.57 46.49 83.47 47.30 86.26 C 46.52 88.08 45.56 89.81 44.44 91.44 L 45.04 92.32 C 42.21 93.17 38.96 94.12 36.12 92.93 C 33.01 90.65 31.07 87.15 28.16 84.63 C 31.79 84.73 35.64 85.01 38.70 87.21 C 39.11 86.48 39.52 85.75 39.93 85.02 L 41.02 87.86 Z" />
<path fill="#231f20" opacity="1.00" d=" M 100.46 77.37 C 102.98 79.83 105.64 82.47 105.99 86.19 C 105.70 86.53 105.13 87.21 104.85 87.55 L 106.58 86.52 C 106.85 86.79 107.38 87.34 107.65 87.62 C 110.55 85.01 114.63 84.70 118.35 84.72 C 115.85 87.10 113.94 90.01 111.45 92.38 C 109.27 94.24 106.29 93.32 103.85 92.68 C 102.95 93.54 102.04 94.40 101.13 95.26 C 105.24 94.96 109.42 95.44 113.18 97.21 C 109.92 98.50 107.12 100.62 104.01 102.18 C 100.92 103.14 98.02 101.25 95.10 100.58 C 93.89 101.13 92.78 101.87 91.65 102.54 C 96.39 102.28 100.99 103.69 105.03 106.12 C 101.14 106.76 97.69 108.67 94.03 109.95 C 90.63 111.03 87.72 108.22 85.32 106.23 C 84.51 106.44 83.70 106.68 82.90 106.93 C 87.03 108.48 90.24 111.57 92.99 114.92 C 89.65 114.46 86.29 114.55 82.93 114.62 C 79.10 114.73 76.22 111.80 73.21 109.86 C 70.52 111.96 67.69 114.58 64.07 114.61 C 60.62 114.57 57.18 114.47 53.75 114.87 C 56.47 111.52 59.69 108.41 63.88 107.01 C 63.08 106.73 62.27 106.45 61.46 106.17 C 59.30 108.03 56.97 110.14 53.95 110.24 C 49.76 109.31 46.12 106.75 41.82 106.16 C 45.76 103.56 50.42 102.35 55.13 102.53 C 53.94 101.86 52.77 101.13 51.52 100.58 C 48.68 101.28 45.91 103.01 42.88 102.27 C 39.76 100.73 36.95 98.60 33.70 97.28 C 37.02 95.53 40.84 94.94 44.56 95.33 C 47.08 91.83 46.77 86.99 50.00 83.89 C 50.38 86.57 51.61 88.97 53.07 91.22 C 54.54 93.60 53.23 96.42 52.69 98.89 C 53.65 99.48 54.60 100.07 55.56 100.67 C 54.02 96.48 54.56 91.73 56.62 87.81 C 57.75 90.99 60.16 93.37 61.97 96.14 C 62.95 98.69 62.43 101.53 62.56 104.21 C 63.16 104.40 64.36 104.78 64.96 104.97 C 63.25 101.13 63.35 96.87 63.92 92.78 C 66.09 95.36 68.53 97.68 71.04 99.93 C 72.82 101.54 72.81 104.10 73.20 106.28 C 73.69 103.79 74.21 101.02 76.31 99.34 C 78.76 97.36 81.03 95.15 82.53 92.35 C 83.52 96.59 83.83 101.21 81.51 105.09 C 82.41 104.75 83.32 104.42 84.23 104.09 C 84.38 100.94 83.49 97.29 85.74 94.67 C 87.58 92.55 89.12 90.21 90.21 87.62 C 91.89 91.75 92.77 96.34 91.31 100.67 C 92.20 100.08 93.09 99.50 93.99 98.92 C 93.57 97.25 93.14 95.58 92.64 93.94 C 93.74 90.40 96.34 87.50 96.87 83.75 C 98.96 86.70 100.48 90.11 100.51 93.79 C 101.00 93.30 101.99 92.32 102.48 91.83 C 101.21 89.77 99.17 87.64 99.78 85.01 C 100.27 82.49 100.65 79.95 100.46 77.37 Z" />
</g>
</svg>
