<?xml version="1.0" encoding="UTF-8" standalone="no"?>
<svg
   width="153.30388pt"
   height="103.27113pt"
   viewBox="0 0 153.30388 103.27113"
   version="1.1"
   id="svg15"
   xml:space="preserve"
   sodipodi:docname="circuit.svg"
   inkscape:export-filename="circuit.svg"
   inkscape:export-xdpi="10.273496"
   inkscape:export-ydpi="10.273496"
   inkscape:version="1.3.2 (091e20e, 2023-11-25, custom)"
   xmlns:inkscape="http://www.inkscape.org/namespaces/inkscape"
   xmlns:sodipodi="http://sodipodi.sourceforge.net/DTD/sodipodi-0.dtd"
   xmlns:xlink="http://www.w3.org/1999/xlink"
   xmlns="http://www.w3.org/2000/svg"
   xmlns:svg="http://www.w3.org/2000/svg"><sodipodi:namedview
     id="namedview1"
     pagecolor="#ffffff"
     bordercolor="#000000"
     borderopacity="0.25"
     inkscape:showpageshadow="2"
     inkscape:pageopacity="0.0"
     inkscape:pagecheckerboard="0"
     inkscape:deskcolor="#d1d1d1"
     inkscape:document-units="pt"
     inkscape:zoom="5.3814652"
     inkscape:cx="112.05127"
     inkscape:cy="45.805369"
     inkscape:window-width="1920"
     inkscape:window-height="1009"
     inkscape:window-x="-8"
     inkscape:window-y="-8"
     inkscape:window-maximized="1"
     inkscape:current-layer="g19" /><defs
     id="defs15"><linearGradient
       id="swatch15"><stop
         style="stop-color:#ffffff;stop-opacity:1;"
         offset="0"
         id="stop15" /></linearGradient><linearGradient
       xlink:href="#swatch15"
       id="linearGradient20"
       x1="4.2858586"
       y1="68.9963"
       x2="172.48567"
       y2="68.9963"
       gradientUnits="userSpaceOnUse" /><linearGradient
       xlink:href="#swatch15"
       id="linearGradient2"
       gradientUnits="userSpaceOnUse"
       x1="4.2858586"
       y1="68.9963"
       x2="172.48567"
       y2="68.9963" /><linearGradient
       xlink:href="#swatch15"
       id="linearGradient3"
       gradientUnits="userSpaceOnUse"
       x1="4.2858586"
       y1="68.9963"
       x2="172.48567"
       y2="68.9963" /><linearGradient
       xlink:href="#swatch15"
       id="linearGradient4"
       gradientUnits="userSpaceOnUse"
       x1="4.2858586"
       y1="68.9963"
       x2="172.48567"
       y2="68.9963" /><linearGradient
       xlink:href="#swatch15"
       id="linearGradient5"
       gradientUnits="userSpaceOnUse"
       x1="4.2858586"
       y1="68.9963"
       x2="172.48567"
       y2="68.9963" /></defs><g
     id="g19"
     transform="translate(-11.594447,-17.639469)"
     style="fill:url(#linearGradient20)"><g
       id="#fefefeff"
       style="fill:url(#linearGradient2)" /><g
       id="#231f20ff"
       style="fill:url(#linearGradient5)"
       transform="matrix(0.91143912,0,0,0.91143912,7.6881478,6.3891075)"><path
         fill="#231f20"
         opacity="1"
         d="m 75.49,12.41 c 1.97,-0.03 3.95,-0.19 5.91,0.13 1.51,0.97 0.99,2.92 1.14,4.42 -0.03,6.17 -0.02,12.34 -0.06,18.51 -2.06,0.62 -4.22,1.24 -6.39,0.71 -1.81,-1.93 -1.19,-4.77 -1.33,-7.17 0.19,-5.54 -0.46,-11.14 0.73,-16.6 z"
         id="path1"
         style="fill:url(#linearGradient3)" /><path
         fill="#231f20"
         opacity="1"
         d="m 32.63,33.6 c 2.25,-6.78 8.14,-12.74 15.54,-13.24 7.02,-0.24 14.05,-0.07 21.08,-0.04 0.01,2.66 0.01,5.31 0,7.96 -6.41,0.13 -12.83,-0.07 -19.24,0.07 -3.81,-0.08 -7.13,2.62 -8.77,5.9 -3.89,7.74 -2.68,16.92 -6.25,24.74 -1.7,3.91 -6.2,4.73 -9.69,6.32 -4.81,2.11 -9.97,4.75 -12.51,9.6 -1.43,3.67 0.92,7.38 3.17,10.14 2.61,2.99 5.84,6.19 10.04,6.41 3.94,-0.17 7.1,-3.1 9.37,-6.08 3.75,-4.87 3.67,-11.62 7.63,-16.37 4.03,-5.35 10.51,-8.25 17.03,-9.09 4.9,-0.7 10.55,-0.98 14.59,2.42 4.31,3.24 6.25,9.05 4.85,14.25 -1.54,5.72 -3.97,11.15 -6.15,16.64 1.1,1.17 1.94,2.9 3.72,3.1 2.53,0.39 4.35,-1.74 6.15,-3.14 5.36,-4.76 12.08,-7.53 18.54,-10.44 4.09,-1.87 9.45,-2.62 13.23,0.32 3.88,2.97 5.86,7.81 6.47,12.54 0.7,5.62 2.23,11.49 6.32,15.65 6.96,7.22 19.03,8.2 27.4,2.89 7.26,-4.33 10.64,-13.79 8.58,-21.85 -1,-3.99 -4.87,-6.71 -8.89,-6.92 -8.02,-0.47 -16.25,0.16 -24.03,-2.22 -2.82,-0.85 -5.75,-2.43 -6.84,-5.35 -1.14,-2.49 -0.04,-5.29 1.56,-7.29 2.97,-3.82 7.5,-5.84 11.27,-8.72 6.22,-4.7 12.12,-10.09 16.21,-16.8 1.64,-2.81 3.16,-6.09 2.42,-9.42 -0.7,-2.13 -2.78,-3.39 -4.68,-4.34 -4.58,-2.12 -9.68,-2.97 -14.7,-2.93 -15.92,0.01 -31.84,0.03 -47.76,-0.01 -0.01,-2.67 -0.02,-5.35 -0.02,-8.02 15.92,-0.03 31.83,-0.01 47.75,-0.02 8.06,-0.09 16.6,1.58 23.05,6.67 4.74,3.73 5.75,10.47 3.85,15.94 -2.94,8.81 -9.71,15.54 -16.43,21.62 -4.41,4.07 -9.69,6.97 -14.41,10.63 8.51,2.5 17.49,1.25 26.17,2.58 5.85,1.12 11.06,5.36 12.9,11.1 3.63,10.85 -0.33,23.95 -9.56,30.81 -10.76,8.26 -27.13,8.05 -37.57,-0.65 -6.55,-5.22 -9.59,-13.49 -10.37,-21.6 -0.37,-3.29 -1.87,-8.95 -6.24,-7.92 -7.63,2.68 -15.2,6.27 -21.14,11.88 -4.4,3.89 -11.52,4.18 -16.22,0.65 -3.53,-2.68 -5.42,-7.58 -4.1,-11.89 1.66,-5.52 4.59,-10.63 5.81,-16.28 0.62,-3.28 -2.51,-6.3 -5.69,-6.24 -5.43,0.07 -11.36,1.2 -15.42,5.09 C 46.74,76.51 46.72,82.44 44,86.99 40.34,93.51 33.92,99.6 26,99.55 18.1,99.51 11.72,93.61 7.55,87.42 3.56,81.89 2.96,73.77 7.25,68.23 12.14,61.49 20.3,58.69 27.55,55.36 30.47,48.51 29.75,40.55 32.63,33.6 Z"
         id="path2"
         style="fill:url(#linearGradient4)" /></g></g></svg>
