<?xml version="1.0" encoding="UTF-8" ?>
<!DOCTYPE svg PUBLIC "-//W3C//DTD SVG 1.1//EN" "http://www.w3.org/Graphics/SVG/1.1/DTD/svg11.dtd">
<svg width="110pt" height="109pt" viewBox="0 0 110 109" version="1.1" xmlns="http://www.w3.org/2000/svg">
<g id="#ffffffff">
<path fill="#ffffff" opacity="1.00" d=" M 0.00 0.00 L 110.00 0.00 L 110.00 109.00 L 0.00 109.00 L 0.00 0.00 M 27.04 9.99 C 27.64 13.13 30.80 15.56 30.20 18.89 C 28.76 21.97 25.06 25.57 21.45 23.59 C 19.31 21.95 18.35 19.17 16.06 17.66 C 13.81 21.31 14.59 26.39 17.82 29.19 C 20.03 31.19 23.22 30.85 25.96 31.37 C 29.68 31.72 32.87 33.98 35.44 36.57 C 49.40 50.61 63.39 64.61 77.44 78.56 C 80.03 81.13 82.30 84.32 82.69 88.04 C 83.14 91.61 83.42 96.01 86.96 98.00 C 90.02 99.99 93.78 99.16 96.86 97.70 C 94.60 95.59 90.93 95.03 89.63 91.97 C 89.56 88.25 92.41 84.54 96.03 83.72 C 99.01 83.96 101.18 86.54 104.13 87.03 C 104.26 82.83 101.79 78.54 97.89 76.87 C 94.42 76.20 90.85 77.13 87.38 76.52 C 85.63 75.77 84.28 74.37 82.91 73.09 C 68.94 59.07 54.93 45.07 40.91 31.09 C 39.64 29.72 38.21 28.38 37.51 26.61 C 36.88 23.14 37.86 19.58 37.17 16.13 C 35.51 12.25 31.20 9.82 27.04 9.99 M 82.21 15.35 C 80.30 19.67 83.60 25.25 80.03 28.98 C 74.03 35.60 67.18 41.44 61.29 48.15 C 61.86 50.47 64.31 51.89 66.05 53.37 C 67.34 53.06 68.17 51.94 69.13 51.12 C 73.92 46.24 78.77 41.43 83.59 36.59 C 86.16 34.03 89.30 31.70 93.03 31.37 C 95.78 30.85 98.97 31.20 101.20 29.22 C 104.23 26.31 105.36 21.28 102.95 17.64 C 100.03 19.53 99.15 24.37 95.04 24.20 C 92.24 23.73 90.00 21.37 88.85 18.88 C 88.20 15.55 91.60 13.18 91.97 9.97 C 88.06 9.85 84.15 11.94 82.21 15.35 M 32.89 75.86 C 29.07 78.00 24.32 75.53 20.34 77.21 C 16.95 79.17 14.79 83.07 14.90 86.99 C 17.86 86.59 20.03 83.98 22.98 83.71 C 27.02 84.39 31.46 90.20 27.62 93.67 C 26.27 95.42 22.43 96.01 23.20 98.69 C 27.35 100.14 32.74 99.10 34.99 95.03 C 36.55 91.67 35.75 87.69 37.37 84.34 C 39.64 79.56 44.08 76.40 47.60 72.60 C 50.94 68.99 54.84 65.88 57.87 61.99 C 56.65 59.92 54.82 58.30 52.91 56.86 C 45.62 62.44 40.06 70.09 32.89 75.86 Z" />
</g>
<g id="#231f20ff">
<path fill="#231f20" opacity="1.00" d=" M 27.04 9.99 C 31.20 9.82 35.51 12.25 37.17 16.13 C 37.86 19.58 36.88 23.14 37.51 26.61 C 38.21 28.38 39.64 29.72 40.91 31.09 C 54.93 45.07 68.94 59.07 82.91 73.09 C 84.28 74.37 85.63 75.77 87.38 76.52 C 90.85 77.13 94.42 76.20 97.89 76.87 C 101.79 78.54 104.26 82.83 104.13 87.03 C 101.18 86.54 99.01 83.96 96.03 83.72 C 92.41 84.54 89.56 88.25 89.63 91.97 C 90.93 95.03 94.60 95.59 96.86 97.70 C 93.78 99.16 90.02 99.99 86.96 98.00 C 83.42 96.01 83.14 91.61 82.69 88.04 C 82.30 84.32 80.03 81.13 77.44 78.56 C 63.39 64.61 49.40 50.61 35.44 36.57 C 32.87 33.98 29.68 31.72 25.96 31.37 C 23.22 30.85 20.03 31.19 17.82 29.19 C 14.59 26.39 13.81 21.31 16.06 17.66 C 18.35 19.17 19.31 21.95 21.45 23.59 C 25.06 25.57 28.76 21.97 30.20 18.89 C 30.80 15.56 27.64 13.13 27.04 9.99 Z" />
<path fill="#231f20" opacity="1.00" d=" M 82.21 15.35 C 84.15 11.94 88.06 9.85 91.97 9.97 C 91.60 13.18 88.20 15.55 88.85 18.88 C 90.00 21.37 92.24 23.73 95.04 24.20 C 99.15 24.37 100.03 19.53 102.95 17.64 C 105.36 21.28 104.23 26.31 101.20 29.22 C 98.97 31.20 95.78 30.85 93.03 31.37 C 89.30 31.70 86.16 34.03 83.59 36.59 C 78.77 41.43 73.92 46.24 69.13 51.12 C 68.17 51.94 67.34 53.06 66.05 53.37 C 64.31 51.89 61.86 50.47 61.29 48.15 C 67.18 41.44 74.03 35.60 80.03 28.98 C 83.60 25.25 80.30 19.67 82.21 15.35 Z" />
<path fill="#231f20" opacity="1.00" d=" M 32.89 75.86 C 40.06 70.09 45.62 62.44 52.91 56.86 C 54.82 58.30 56.65 59.92 57.87 61.99 C 54.84 65.88 50.94 68.99 47.60 72.60 C 44.08 76.40 39.64 79.56 37.37 84.34 C 35.75 87.69 36.55 91.67 34.99 95.03 C 32.74 99.10 27.35 100.14 23.20 98.69 C 22.43 96.01 26.27 95.42 27.62 93.67 C 31.46 90.20 27.02 84.39 22.98 83.71 C 20.03 83.98 17.86 86.59 14.90 86.99 C 14.79 83.07 16.95 79.17 20.34 77.21 C 24.32 75.53 29.07 78.00 32.89 75.86 Z" />
</g>
</svg>
