<?xml version="1.0" encoding="UTF-8" standalone="no"?>
<svg
   width="80.999657pt"
   height="80.756561pt"
   viewBox="0 0 80.999656 80.756561"
   version="1.1"
   id="svg15"
   sodipodi:docname="constructor.svg"
   xml:space="preserve"
   inkscape:export-filename="constructor.svg"
   inkscape:export-xdpi="19.234196"
   inkscape:export-ydpi="19.234196"
   inkscape:version="1.3.2 (091e20e, 2023-11-25, custom)"
   xmlns:inkscape="http://www.inkscape.org/namespaces/inkscape"
   xmlns:sodipodi="http://sodipodi.sourceforge.net/DTD/sodipodi-0.dtd"
   xmlns:xlink="http://www.w3.org/1999/xlink"
   xmlns="http://www.w3.org/2000/svg"
   xmlns:svg="http://www.w3.org/2000/svg"><defs
     id="defs15"><linearGradient
       id="swatch19"
       inkscape:swatch="solid"><stop
         style="stop-color:#000000;stop-opacity:1;"
         offset="0"
         id="stop19" /></linearGradient><linearGradient
       id="swatch15"
       inkscape:swatch="solid"><stop
         style="stop-color:#ffffff;stop-opacity:1;"
         offset="0"
         id="stop15" /></linearGradient><linearGradient
       inkscape:collect="always"
       xlink:href="#swatch15"
       id="linearGradient19"
       x1="14.59"
       y1="54.495186"
       x2="104.43"
       y2="54.495186"
       gradientUnits="userSpaceOnUse" /><linearGradient
       inkscape:collect="always"
       xlink:href="#swatch15"
       id="linearGradient2"
       gradientUnits="userSpaceOnUse"
       x1="14.59"
       y1="54.495186"
       x2="104.43"
       y2="54.495186" /><linearGradient
       inkscape:collect="always"
       xlink:href="#swatch15"
       id="linearGradient3"
       gradientUnits="userSpaceOnUse"
       x1="14.59"
       y1="54.495186"
       x2="104.43"
       y2="54.495186" /><linearGradient
       inkscape:collect="always"
       xlink:href="#swatch15"
       id="linearGradient4"
       gradientUnits="userSpaceOnUse"
       x1="14.59"
       y1="54.495186"
       x2="104.43"
       y2="54.495186" /><linearGradient
       inkscape:collect="always"
       xlink:href="#swatch15"
       id="linearGradient5"
       gradientUnits="userSpaceOnUse"
       x1="14.59"
       y1="54.495186"
       x2="104.43"
       y2="54.495186" /><linearGradient
       inkscape:collect="always"
       xlink:href="#swatch15"
       id="linearGradient6"
       gradientUnits="userSpaceOnUse"
       x1="14.59"
       y1="54.495186"
       x2="104.43"
       y2="54.495186" /></defs><sodipodi:namedview
     id="namedview15"
     pagecolor="#ffffff"
     bordercolor="#000000"
     borderopacity="0.25"
     inkscape:showpageshadow="2"
     inkscape:pageopacity="0.0"
     inkscape:pagecheckerboard="0"
     inkscape:deskcolor="#d1d1d1"
     inkscape:document-units="pt"
     showgrid="false"
     inkscape:zoom="7.5504703"
     inkscape:cx="59.863821"
     inkscape:cy="59.665158"
     inkscape:window-width="1920"
     inkscape:window-height="1009"
     inkscape:window-x="-8"
     inkscape:window-y="-8"
     inkscape:window-maximized="1"
     inkscape:current-layer="svg15" /><g
     id="g19"
     transform="matrix(0.90159902,0,0,0.90159902,-13.15433,-8.7545264)"
     style="fill:url(#linearGradient19)"><g
       id="#ffffffff-4"
       style="fill:url(#linearGradient2)" /><g
       id="#231f20ff-7"
       style="fill:url(#linearGradient6)"><path
         fill="#231f20"
         opacity="1"
         d="m 26.63,9.72 c 3.73,0.38 7.63,1.66 9.81,4.92 2.81,3.73 -0.51,8.62 1.39,12.63 0.53,1.04 1.31,1.92 2.1,2.77 14.17,14.17 28.37,28.32 42.51,42.52 1.52,1.45 2.96,3.15 4.96,3.97 3.45,0.83 7.06,-0.61 10.49,0.26 4.22,1.77 6.16,6.38 6.54,10.68 -2.85,-1.13 -5.34,-3.33 -8.41,-3.82 -3.74,0.88 -6.3,4.75 -6.7,8.46 1.62,2.85 4.91,4.12 7.61,5.76 -3.25,0.88 -6.9,2.33 -9.97,0.11 -4,-2.61 -3.72,-7.94 -4.8,-12.06 -1.08,-4.1 -4.3,-7.02 -7.22,-9.87 C 62.1,63.23 49.25,50.41 36.45,37.55 33.85,34.72 30.64,32.24 26.76,31.56 23.37,30.82 19.12,31.33 16.83,28.15 14.16,25.03 14.39,20.63 16.05,17.1 c 2.51,2.45 3.91,6.95 7.91,7.21 2.82,-0.59 5.07,-2.92 6.35,-5.4 0.34,-3.44 -2.59,-6.1 -3.68,-9.19 z"
         id="path1-9"
         style="fill:url(#linearGradient3)" /><path
         fill="#231f20"
         opacity="1"
         d="m 82.6,14.67 c 2.14,-3.3 6.09,-4.55 9.81,-4.96 -1.04,3.1 -4.01,5.76 -3.64,9.17 1.49,2.98 5.17,6.86 8.75,4.74 2.16,-1.67 3.44,-4.17 4.99,-6.36 3.89,4.41 1.1,12.7 -4.81,13.5 -4.43,0.51 -9.19,1.13 -12.56,4.37 -6.43,6.15 -12.55,12.62 -18.95,18.8 -1.83,-1.85 -3.63,-3.72 -5.37,-5.65 5.98,-5.85 11.83,-11.83 17.79,-17.71 1.76,-1.72 3.52,-3.9 3.19,-6.54 0.12,-3.11 -1.32,-6.64 0.8,-9.36 z"
         id="path2-9"
         style="fill:url(#linearGradient4)" /><path
         fill="#231f20"
         opacity="1"
         d="m 34,75.04 c 6.39,-6.07 12.43,-12.5 18.78,-18.6 1.8,1.86 3.62,3.7 5.45,5.53 -6.03,6.06 -12.17,12.02 -18.11,18.16 -3.73,3.78 -3.72,9.29 -4.78,14.13 -2.08,5.09 -8.77,6.27 -13.26,3.72 2.48,-2.46 6.99,-3.91 7.18,-7.93 -0.76,-2.92 -3.26,-5.79 -6.28,-6.4 -3.05,0.54 -5.52,2.72 -8.39,3.82 0.46,-3.49 1.53,-7.18 4.47,-9.41 4.22,-3.85 10.83,1.12 14.94,-3.02 z"
         id="path3"
         style="fill:url(#linearGradient5)" /></g></g></svg>
