<?xml version="1.0" encoding="UTF-8" standalone="no"?>
<svg
   width="60pt"
   height="60pt"
   viewBox="0 0 119.00001 117"
   version="1.1"
   id="svg15"
   xml:space="preserve"
   sodipodi:docname="driver.svg"
   inkscape:export-filename="driver.svg"
   inkscape:export-xdpi="14.521008"
   inkscape:export-ydpi="14.521008"
   inkscape:version="1.3.2 (091e20e, 2023-11-25, custom)"
   xmlns:inkscape="http://www.inkscape.org/namespaces/inkscape"
   xmlns:sodipodi="http://sodipodi.sourceforge.net/DTD/sodipodi-0.dtd"
   xmlns:xlink="http://www.w3.org/1999/xlink"
   xmlns="http://www.w3.org/2000/svg"
   xmlns:svg="http://www.w3.org/2000/svg"><sodipodi:namedview
     id="namedview1"
     pagecolor="#ffffff"
     bordercolor="#000000"
     borderopacity="0.25"
     inkscape:showpageshadow="2"
     inkscape:pageopacity="0.0"
     inkscape:pagecheckerboard="0"
     inkscape:deskcolor="#d1d1d1"
     inkscape:document-units="pt"
     inkscape:zoom="5.2115385"
     inkscape:cx="79.247232"
     inkscape:cy="78"
     inkscape:window-width="1920"
     inkscape:window-height="1009"
     inkscape:window-x="-8"
     inkscape:window-y="-8"
     inkscape:window-maximized="1"
     inkscape:current-layer="svg15" /><defs
     id="defs15"><linearGradient
       id="swatch21"><stop
         style="stop-color:#000000;stop-opacity:1;"
         offset="0"
         id="stop21" /></linearGradient><linearGradient
       id="swatch20"><stop
         style="stop-color:#000000;stop-opacity:1;"
         offset="0"
         id="stop20" /></linearGradient><linearGradient
       id="swatch19"><stop
         style="stop-color:#000000;stop-opacity:1;"
         offset="0"
         id="stop19" /></linearGradient><linearGradient
       id="swatch15"><stop
         style="stop-color:#ffffff;stop-opacity:1;"
         offset="0"
         id="stop15" /></linearGradient><linearGradient
       xlink:href="#swatch21"
       id="linearGradient21"
       x1="20.354034"
       y1="71"
       x2="184.80989"
       y2="71"
       gradientUnits="userSpaceOnUse" /><linearGradient
       xlink:href="#swatch15"
       id="linearGradient22"
       gradientUnits="userSpaceOnUse"
       x1="20.354034"
       y1="71"
       x2="184.80989"
       y2="71" /><linearGradient
       xlink:href="#swatch15"
       id="linearGradient23"
       gradientUnits="userSpaceOnUse"
       x1="20.354034"
       y1="71"
       x2="184.80989"
       y2="71" /><linearGradient
       xlink:href="#swatch15"
       id="linearGradient24"
       gradientUnits="userSpaceOnUse"
       x1="20.354034"
       y1="71"
       x2="184.80989"
       y2="71" /></defs><g
     id="g20"
     transform="matrix(0.66659589,0,0,0.66659589,-9.0172378,15.391574)"
     style="fill:url(#linearGradient21)"><g
       id="#ffffffff"
       style="fill:url(#linearGradient22)" /><g
       id="#231f20ff-8"
       style="fill:url(#linearGradient24)"
       transform="translate(0.20480759,-6.3304954)"><path
         fill="#231f20"
         opacity="1"
         d="m 50.41,24.67 c 19.49,-1.6 39.06,-1.22 58.59,-1.29 15.54,0.03 31.11,-0.01 46.6,1.37 4.52,0.33 8.2,3.34 11.41,6.27 8.33,8.06 13.3,19.02 16.14,30.11 3.43,16.13 1.34,33.14 -4.39,48.5 -1.15,2.82 0.62,6.52 -1.89,8.73 -3.13,0.5 -6.19,-1.19 -9.09,-2.18 -2.62,-2.07 -3.43,-5.95 -3.16,-9.13 1.53,-6.93 2.38,-13.99 2.84,-21.05 -0.99,-3.42 -5.48,-3.37 -8.42,-3.38 -2.42,0.2 -5.73,-1.57 -7.2,1.19 -2.61,3.88 -0.65,8.81 -1.75,13.04 -1.94,3.5 -6.07,4.68 -9.64,5.74 -10.61,2.56 -21.64,2.25 -32.45,1.57 -6.02,-1.19 -12.01,0.61 -18.05,0.48 -10.72,0.15 -22.12,0.32 -31.89,-4.74 -6.32,-3.53 -0.82,-12.03 -5.16,-16.81 -1.23,-1.58 -3.45,-0.5 -5.11,-0.57 -3.5,0.32 -8.48,-0.54 -10.17,3.47 0.82,6.5 1.13,13.11 2.77,19.48 1.08,3.58 -0.07,7.66 -2.41,10.47 -3.18,1.51 -6.67,2.46 -10.19,2.68 -0.78,-3.79 -0.62,-7.77 -2.1,-11.4 -6.12,-17.63 -7.78,-37.63 -0.68,-55.23 3.78,-9.84 9.63,-19.5 18.75,-25.22 1.96,-1.35 4.3,-1.94 6.65,-2.1 m -10.07,9.52 c -4.42,1.64 -0.96,8.76 3.13,6.34 4.28,-1.82 0.59,-8.59 -3.13,-6.34 m 121.18,0.25 c -1.56,0.66 -1.52,2.78 -1.28,4.19 0.7,3.44 6.8,2.8 6.6,-0.79 0.71,-2.93 -2.98,-5.25 -5.32,-3.4 m -83.33,0.77 c -1.78,0.37 -0.95,3.27 0.77,2.7 1.78,-0.38 0.95,-3.29 -0.77,-2.7 m 2.95,0.27 c -1.68,1.04 0.4,3.26 1.77,2.17 1.66,-1.04 -0.41,-3.28 -1.77,-2.17 m 3.28,0.12 c -0.03,0.48 -0.09,1.45 -0.12,1.93 7.55,-0.28 15.11,-0.23 22.65,-0.02 -0.01,-0.48 -0.05,-1.45 -0.06,-1.93 -7.49,0.22 -14.98,0.17 -22.47,0.02 m 24.68,-0.45 c -1.86,0.38 -1.05,3.58 0.76,3.04 1.78,-0.52 1.17,-3.62 -0.76,-3.04 m 2.99,0.32 c -1.67,1.04 0.36,3.29 1.75,2.17 1.7,-1.01 -0.39,-3.26 -1.75,-2.17 m 3.17,0.15 c 0,0.46 -0.01,1.39 -0.01,1.85 1.85,-0.06 3.69,-0.05 5.54,0.02 0,-0.48 -0.01,-1.44 -0.02,-1.91 -1.84,0.07 -3.67,0.08 -5.51,0.04 m 6.97,-0.04 c 0,0.48 -0.01,1.43 -0.02,1.91 1.85,-0.08 3.7,-0.07 5.55,-0.01 0,-0.47 -0.01,-1.42 -0.02,-1.9 -1.83,0.08 -3.67,0.08 -5.51,0 m -72.74,1.71 c -1.45,0.84 -2.26,2.87 -1.31,4.38 0.94,3.12 6.55,2.57 6.6,-0.82 0.83,-2.84 -2.97,-5.65 -5.29,-3.56 m 102.79,-0.27 c -4.65,2.13 -0.05,9.15 3.78,6.02 3.7,-2.32 -0.3,-8.15 -3.78,-6.02 M 77.4,40.46 c -2.06,0.27 -2.64,2.74 -2.64,4.48 -0.05,7.37 0.05,14.73 -0.03,22.1 0.08,2.07 -0.3,4.4 1.01,6.19 1.18,1.69 3.43,1.21 5.19,1.34 15.28,-0.09 30.56,0.04 45.84,-0.07 2.36,0.26 3.98,-2.29 3.66,-4.44 -0.02,-8.7 0.06,-17.4 -0.03,-26.1 0.32,-2.46 -2.25,-3.99 -4.45,-3.68 -16.18,0.11 -32.39,-0.24 -48.55,0.18 m -17.93,0.92 c -1.11,0.82 -2.38,2.02 -2.02,3.56 0.14,3.14 4.86,4.54 6.42,1.66 2.22,-2.72 -1.38,-6.77 -4.4,-5.22 m 83.86,-0.16 c -2.02,0.51 -3.78,3.54 -2,5.27 1.47,2.99 6.56,1.68 6.45,-1.61 0.37,-2.44 -2.18,-4.33 -4.45,-3.66 M 70.34,42.2 c -0.51,1.65 0.04,2.21 1.65,1.68 0.52,-1.64 -0.03,-2.2 -1.65,-1.68 m 62.97,-0.3 c 0.23,2.99 0.21,5.99 0,8.97 0.37,0 1.1,0.01 1.47,0.01 -0.23,-3.01 -0.21,-6.04 0.03,-9.05 -0.37,0.02 -1.13,0.05 -1.5,0.07 m -62.98,3.3 c 0.06,1.9 0.05,3.79 -0.04,5.68 0.36,0 1.09,0 1.45,0 -0.08,-1.89 -0.1,-3.78 -0.04,-5.68 -0.35,0 -1.03,0 -1.37,0 m -20.89,2.26 c -2.73,0.65 -4.05,3.41 -5.02,5.77 -1.09,2.88 -3.64,5.46 -2.78,8.77 1.07,7.07 11.76,8.61 15.75,3.38 0.73,-3.41 0.32,-6.95 0.35,-10.4 0.3,-4.28 -3.82,-8.93 -8.3,-7.52 m 103,-0.03 c -6.27,2.38 -5.08,10.18 -5,15.52 -0.32,3.09 2.82,5.04 5.54,5.33 3.28,0.36 7.2,-0.15 9.31,-2.99 1.49,-2.36 2.09,-5.67 0.52,-8.15 -1.29,-2.14 -2.16,-4.48 -3.31,-6.69 -1.32,-2.5 -4.35,-3.73 -7.06,-3.02 M 62.45,67.46 c -4.4,1.11 -2,8.88 2.34,6.76 3.89,-1.54 1.77,-8.11 -2.34,-6.76 m 77.07,0.84 c -3.94,2.78 1.79,8.89 4.83,5.09 3.38,-2.96 -1.77,-8.37 -4.83,-5.09 M 60.38,80.11 c -1.82,1.14 -2.36,3.64 -0.79,5.25 1.74,2.83 6.59,0.8 6.18,-2.33 0.28,-2.71 -3.31,-4.45 -5.39,-2.92 m 80.85,-0.16 c -4.32,2.19 0.06,9.11 3.81,6.06 3.75,-2.36 -0.07,-8.31 -3.81,-6.06 M 77.56,90.33 c -2.47,2.04 -1.24,5.26 -0.83,7.89 2.72,0.16 6.5,1.59 8.4,-1.09 1.83,-2.15 1.13,-5.14 1.44,-7.71 -2.94,-0.41 -6.76,-1.9 -9.01,0.91 m 24.67,-1.91 c -2.1,0.93 -4.69,2.18 -4.81,4.82 -0.61,3.39 2.94,5.67 5.48,6.96 1.97,-1.71 5.29,-3.04 4.87,-6.19 0.46,-3.07 -2.99,-5.48 -5.54,-5.59 m 17.64,1.4 c -0.38,2.58 -1.9,5.76 0.51,7.82 2.1,2.41 5.47,1.76 8.13,0.89 0.58,-1.9 1.03,-3.93 0.78,-5.92 -0.63,-1.98 -2.49,-3.04 -4.09,-4.14 -1.75,0.57 -3.52,1.06 -5.33,1.35 m -61.32,2.75 c -0.53,1.6 -0.1,3.29 0.02,4.91 1.85,0.13 3.93,0.88 5.61,-0.28 0.96,-1.73 1.15,-4.45 -0.7,-5.68 -1.64,-0.53 -3.87,-0.58 -4.93,1.05 m 83.89,-1.23 c -2.92,0.76 -3.03,5.66 -0.09,6.48 2.58,1.71 6.11,-1.95 4.67,-4.57 -0.61,-1.9 -2.85,-2.38 -4.58,-1.91 z"
         id="path1-5"
         style="fill:url(#linearGradient23)" /></g></g></svg>
