<?xml version="1.0" encoding="UTF-8" standalone="no"?>
<svg
   width="50pt"
   height="50pt"
   viewBox="0 0 119.00001 117"
   version="1.1"
   id="svg15"
   xml:space="preserve"
   xmlns:xlink="http://www.w3.org/1999/xlink"
   xmlns="http://www.w3.org/2000/svg"
   xmlns:svg="http://www.w3.org/2000/svg"><defs
     id="defs15"><linearGradient
       id="swatch15"><stop
         style="stop-color:#ffffff;stop-opacity:1;"
         offset="0"
         id="stop15" /></linearGradient><linearGradient
       xlink:href="#swatch15"
       id="linearGradient15"
       x1="0"
       y1="51.839733"
       x2="107.93"
       y2="51.839733"
       gradientUnits="userSpaceOnUse" /><linearGradient
       xlink:href="#swatch15"
       id="linearGradient16"
       gradientUnits="userSpaceOnUse"
       x1="0"
       y1="51.839733"
       x2="107.93"
       y2="51.839733" /><linearGradient
       xlink:href="#swatch15"
       id="linearGradient17"
       gradientUnits="userSpaceOnUse"
       x1="0"
       y1="51.839733"
       x2="107.93"
       y2="51.839733" /><linearGradient
       xlink:href="#swatch15"
       id="linearGradient18"
       gradientUnits="userSpaceOnUse"
       x1="0"
       y1="51.839733"
       x2="107.93"
       y2="51.839733" /><linearGradient
       xlink:href="#swatch15"
       id="linearGradient19"
       gradientUnits="userSpaceOnUse"
       x1="0"
       y1="51.839733"
       x2="107.93"
       y2="51.839733" /></defs><g
     id="g15"
     style="fill:url(#linearGradient15)"><g
       id="#231f20ff"
       style="fill:url(#linearGradient18)"><path
         fill="#231f20"
         opacity="1"
         d="M 0,0 H 0.1 C 0.08,0.03 0.03,0.08 0,0.1 Z"
         id="path1"
         style="fill:url(#linearGradient16)" /><path
         fill="#231f20"
         opacity="1"
         d="m 47.12,14.1 c 6.65,-3.85 15.52,-3.52 21.79,0.97 8.51,6.4 13.24,17.4 23.55,21.48 5.11,2.13 10.44,0.14 15.47,-1.13 -5.22,13.39 -10.07,26.91 -15.23,40.32 -4.84,1.85 -10.35,2.79 -15.32,0.9 -5.94,-2.21 -10.15,-7.18 -14.33,-11.7 -3.71,-4.26 -7.08,-9.21 -12.41,-11.6 -4.12,-2.02 -8.87,-2.02 -13.26,-1 -6.18,15.99 -11.95,32.1 -17.75,48.24 -0.51,1.52 -1.66,3.69 -3.64,2.95 -2.24,-0.43 -2.14,-3.11 -1.2,-4.66 2.77,-5.31 3.86,-11.29 6.58,-16.62 1.67,-3.53 2.32,-7.43 3.84,-11.02 C 32.6,52.22 39.53,33.02 47.12,14.1 m 11.78,7.96 c 2.5,1.09 4.92,2.35 7.27,3.73 1.26,-2.8 2.3,-5.68 3.22,-8.61 -2.33,-1.47 -4.78,-2.74 -7.39,-3.66 -1.15,2.81 -2.19,5.65 -3.1,8.54 m -11.05,1.72 c -0.92,2.35 -1.8,4.72 -2.59,7.11 2.84,-0.17 5.68,-0.25 8.53,-0.09 0.97,-2.51 2.22,-4.97 2.47,-7.68 -2.81,0.05 -5.62,0.23 -8.41,0.66 m 27.3,11.29 c 1.09,2.75 3.77,4.53 5.86,6.52 1.35,-2.67 2.33,-5.51 3.09,-8.4 -1.98,-1.95 -3.89,-3.97 -5.8,-6 -1.32,2.51 -2.54,5.11 -3.15,7.88 m -11,1.05 c 2.11,2.14 3.57,5.1 6.51,6.27 0.73,-2.15 1.69,-4.23 2.18,-6.45 -1.35,-2.82 -3.87,-4.88 -5.89,-7.22 -0.97,2.46 -1.87,4.93 -2.8,7.4 M 54.91,32.8 c -1.01,2.37 -1.92,4.79 -2.79,7.21 2.53,1.2 4.97,2.58 7.33,4.09 0.8,-2.54 2.6,-5.04 2.28,-7.75 -1.97,-1.69 -4.44,-2.6 -6.82,-3.55 m 39.37,6.38 c -1.06,2.74 -2.12,5.49 -3.03,8.29 3.69,0.37 7.35,-0.18 10.84,-1.39 1.02,-2.6 2.04,-5.2 3.05,-7.81 -3.61,0.41 -7.22,0.81 -10.86,0.91 M 41.8,41.76 c -2.09,2.38 -2.52,5.79 -3.77,8.64 2.88,-0.19 5.77,-0.28 8.65,-0.32 1.09,-2.91 2.22,-5.81 3.27,-8.74 -2.72,-0.22 -5.51,-0.37 -8.15,0.42 m 37.18,10.42 c 2.19,1.69 4.61,3.04 7.17,4.08 1.03,-2.48 1.98,-5 2.9,-7.52 -2.47,-1.24 -4.89,-2.56 -7.28,-3.95 -0.97,2.45 -1.9,4.91 -2.79,7.39 M 68.09,53.9 c 2.02,2.02 3.77,4.52 6.56,5.54 0.75,-2.21 1.56,-4.41 2.41,-6.59 -2.06,-2.21 -4.15,-4.41 -6.2,-6.63 -0.94,2.55 -1.89,5.1 -2.77,7.68 m -10.77,1.87 c 1.76,2.36 3.88,4.43 5.8,6.66 1.15,-2.72 2.16,-5.5 3,-8.33 -1.97,-2.32 -3.85,-4.71 -5.99,-6.89 -0.93,2.83 -2.71,5.55 -2.81,8.56 m 29.88,2.51 c -0.88,2.35 -1.79,4.68 -2.72,7.01 3.44,0.88 7.03,0.41 10.45,-0.34 1.07,-2.54 2.1,-5.1 3.09,-7.67 -3.58,0.58 -7.18,1.2 -10.82,1 m -12.14,4.6 c -1.18,2.91 -2.39,5.82 -3.1,8.89 2.19,1.53 4.52,2.84 7.01,3.82 1.21,-2.91 2.31,-5.86 3.44,-8.8 -2.46,-1.29 -4.91,-2.6 -7.35,-3.91 z"
         id="path2"
         style="fill:url(#linearGradient17)" /></g><g
       id="#ffffffff"
       style="fill:url(#linearGradient19)" /></g></svg>
