<?xml version="1.0" encoding="UTF-8" standalone="no"?>
<!-- Created with Inkscape (http://www.inkscape.org/) -->

<svg
   version="1.1"
   id="svg1"
   width="60pt"
   height="60pt"
   viewBox="1 1 190 205"
   sodipodi:docname="Captura de tela 2024-07-30 121232.svg"
   xml:space="preserve"
   inkscape:export-filename="svgs\redlights.svg"
   inkscape:export-xdpi="11.815385"
   inkscape:export-ydpi="11.815385"
   inkscape:version="1.3.2 (091e20e, 2023-11-25, custom)"
   xmlns:inkscape="http://www.inkscape.org/namespaces/inkscape"
   xmlns:sodipodi="http://sodipodi.sourceforge.net/DTD/sodipodi-0.dtd"
   xmlns="http://www.w3.org/2000/svg"
   xmlns:svg="http://www.w3.org/2000/svg"><defs
     id="defs1"><linearGradient
       id="swatch3"
       inkscape:swatch="solid"><stop
         style="stop-color:#000000;stop-opacity:1;"
         offset="0"
         id="stop3" /></linearGradient></defs><sodipodi:namedview
     id="namedview1"
     pagecolor="#ffffff"
     bordercolor="#000000"
     borderopacity="0.25"
     inkscape:showpageshadow="2"
     inkscape:pageopacity="0.0"
     inkscape:pagecheckerboard="0"
     inkscape:deskcolor="#d1d1d1"
     inkscape:zoom="4.1961884"
     inkscape:cx="85.434676"
     inkscape:cy="78.04702"
     inkscape:window-width="1920"
     inkscape:window-height="1009"
     inkscape:window-x="-8"
     inkscape:window-y="-8"
     inkscape:window-maximized="1"
     inkscape:current-layer="svg1" /><path
     id="rect21"
     style="display:inline;opacity:1;fill:#ffffff"
     d="m 7.5507811,1.25e-7 c -1.938996,0 -3.5,1.561003975 -3.5,3.499999975 v 1.341797 c 0,1.938996 1.561004,3.5 3.5,3.5 h 2.4589849 v -0.02344 h 6.671874 v 0.02344 h 27.40625 v -0.02344 h 6.671876 v 0.02344 h 27.167968 v -0.02344 h 6.671875 v 0.02344 H 111.5293 v -0.02344 h 6.67383 v 0.02344 h 27.16601 v -0.02344 h 6.67383 v 0.02344 h 4.125 c 1.939,0 3.5,-1.561004 3.5,-3.5 v -1.341797 c 0,-1.938996 -1.561,-3.499999975 -3.5,-3.499999975 z M 152.04297,8.3417971 h -6.67383 v 8.3652339 h 0.21289 c 0.16481,-0.008 0.32728,-0.02539 0.49414,-0.02539 h 5.9668 z m 0,8.3398439 v 0.02539 h -6.46094 c -5.30705,0.257596 -9.50586,4.601479 -9.50586,9.97461 v 63.648432 c 0,5.54 4.46002,10.000007 10,9.999997 h 6.45313 c 5.53998,0 10,-4.459997 10,-9.999997 V 26.681641 c 0,-5.53999 -4.46002,-10 -10,-10 z M 118.20313,8.3417971 h -6.67383 v 8.3398439 h 6.20508 c 0.15827,0 0.31231,0.01624 0.46875,0.02344 z m 0,8.3632809 v 0.002 h -6.67383 v -0.02539 h -0.24609 c -5.54,0 -10.00001,4.46001 -10,10 V 90.33012 c -1e-5,5.54 4.46,10.00001 10,10 h 6.45117 c 5.53998,0 10,-4.46 10,-10 V 26.681641 c 0,-5.381716 -4.21217,-9.731685 -9.53125,-9.976563 z M 84.599609,8.3417971 h -6.671875 v 8.3398439 h 5.966797 c 0.166859,0 0.329334,0.01739 0.494141,0.02539 h 0.210937 z m -0.210937,8.3652339 h -6.460938 v -0.02539 h -0.486328 c -5.539988,0 -10,4.46001 -10,10 v 63.648432 c 0,5.54 4.460012,10.000007 10,9.999997 h 6.453125 c 5.539987,0 9.999997,-4.459997 9.999997,-9.999997 V 26.681641 c 0,-5.373131 -4.1988,-9.717014 -9.505856,-9.97461 z M 50.759766,8.3417971 H 44.08789 v 8.3398439 h 6.44336 c 0.07716,0 0.15178,0.01 0.228516,0.01172 z m 0,8.3515619 v 0.01367 H 44.08789 v -0.02539 h -0.0098 c -5.53999,0 -10,4.46001 -10,10 v 63.648432 c 0,5.54 4.46001,10.000009 10,9.999999 h 6.453125 c 5.539988,0 10,-4.459999 10,-9.999999 v -63.64843 c 0,-5.462826 -4.338973,-9.866417 -9.771484,-9.988282 z M 16.68164,8.3417971 h -6.671874 v 8.3398439 h 6.443359 c 0.07716,0 0.151781,0.01 0.228515,0.01172 z m 0,8.3515619 v 0.01367 h -6.671874 v -0.02539 h -0.0098 c -5.53999,0 -9.999999975,4.46001 -9.999999975,10 v 63.648432 c 0,5.54 4.460009975,10.000009 9.999999975,9.999999 h 6.4531249 c 5.539988,0 10,-4.459999 10,-9.999999 v -63.64843 c 0,-5.462826 -4.338972,-9.866417 -9.771485,-9.988282 z m -3.203124,5.607422 A 10.021165,9.9446487 0 0 1 23.5,32.246094 10.021165,9.9446487 0 0 1 13.478516,42.189453 10.021165,9.9446487 0 0 1 3.4570311,32.246094 10.021165,9.9446487 0 0 1 13.478516,22.300781 Z m 34.05664,0 A 10.021165,9.9446487 0 0 1 57.55664,32.246094 10.021165,9.9446487 0 0 1 47.535156,42.189453 10.021165,9.9446487 0 0 1 37.515625,32.246094 10.021165,9.9446487 0 0 1 47.535156,22.300781 Z m 33.832031,0 a 10.021165,9.9446487 0 0 1 10.021481,9.945313 10.021165,9.9446487 0 0 1 -10.021481,9.943359 10.021165,9.9446487 0 0 1 -10.019531,-9.943359 10.021165,9.9446487 0 0 1 10.019531,-9.945313 z m 33.623053,0 a 10.021165,9.9446487 0 0 1 10.02148,9.945313 10.021165,9.9446487 0 0 1 -10.02148,9.943359 10.021165,9.9446487 0 0 1 -10.02149,-9.943359 10.021165,9.9446487 0 0 1 10.02149,-9.945313 z m 34.33789,0.06055 a 10.021165,9.9446487 0 0 1 10.02148,9.945313 10.021165,9.9446487 0 0 1 -10.02148,9.943359 10.021165,9.9446487 0 0 1 -10.01953,-9.943359 10.021165,9.9446487 0 0 1 10.01953,-9.945313 z M 13.478516,47.746094 A 10.021165,9.9446487 0 0 1 23.5,57.691406 10.021165,9.9446487 0 0 1 13.478516,67.634765 10.021165,9.9446487 0 0 1 3.4570311,57.691406 10.021165,9.9446487 0 0 1 13.478516,47.746094 Z m 34.05664,0 A 10.021165,9.9446487 0 0 1 57.55664,57.691406 10.021165,9.9446487 0 0 1 47.535156,67.634765 10.021165,9.9446487 0 0 1 37.515625,57.691406 10.021165,9.9446487 0 0 1 47.535156,47.746094 Z m 33.832031,0 a 10.021165,9.9446487 0 0 1 10.021481,9.945312 10.021165,9.9446487 0 0 1 -10.021481,9.943359 10.021165,9.9446487 0 0 1 -10.019531,-9.943359 10.021165,9.9446487 0 0 1 10.019531,-9.945312 z m 33.623053,0 a 10.021165,9.9446487 0 0 1 10.02148,9.945312 10.021165,9.9446487 0 0 1 -10.02148,9.943359 10.021165,9.9446487 0 0 1 -10.02149,-9.943359 10.021165,9.9446487 0 0 1 10.02149,-9.945312 z m 34.50195,0 a 10.021165,9.9446487 0 0 1 10.02148,9.945312 10.021165,9.9446487 0 0 1 -10.02148,9.943359 10.021165,9.9446487 0 0 1 -10.02148,-9.943359 10.021165,9.9446487 0 0 1 10.02148,-9.945312 z M 13.478516,73.359375 A 10.021165,9.9446487 0 0 1 23.5,83.304683 10.021165,9.9446487 0 0 1 13.478516,93.250003 10.021165,9.9446487 0 0 1 3.4570311,83.304683 10.021165,9.9446487 0 0 1 13.478516,73.359375 Z m 34.05664,0 a 10.021165,9.9446487 0 0 1 10.021484,9.945308 10.021165,9.9446487 0 0 1 -10.021484,9.94532 10.021165,9.9446487 0 0 1 -10.019531,-9.94532 10.021165,9.9446487 0 0 1 10.019531,-9.945308 z m 33.832031,0 a 10.021165,9.9446487 0 0 1 10.021481,9.945308 10.021165,9.9446487 0 0 1 -10.021481,9.94532 10.021165,9.9446487 0 0 1 -10.019531,-9.94532 10.021165,9.9446487 0 0 1 10.019531,-9.945308 z m 33.623053,0 a 10.021165,9.9446487 0 0 1 10.02148,9.945308 10.021165,9.9446487 0 0 1 -10.02148,9.94532 10.021165,9.9446487 0 0 1 -10.02149,-9.94532 10.021165,9.9446487 0 0 1 10.02149,-9.945308 z m 34.50195,0 a 10.021165,9.9446487 0 0 1 10.02148,9.945308 10.021165,9.9446487 0 0 1 -10.02148,9.94532 10.021165,9.9446487 0 0 1 -10.02148,-9.94532 10.021165,9.9446487 0 0 1 10.02148,-9.945308 z" /></svg>
