<?xml version="1.0" encoding="UTF-8" ?>
<!DOCTYPE svg PUBLIC "-//W3C//DTD SVG 1.1//EN" "http://www.w3.org/Graphics/SVG/1.1/DTD/svg11.dtd">
<svg width="114pt" height="110pt" viewBox="0 0 114 110" version="1.1" xmlns="http://www.w3.org/2000/svg">
<g id="#ffffffff">
</g>
<g id="#231f20ff">
<path fill="#231f20" opacity="1.00" d=" M 80.49 17.94 C 83.00 9.81 96.29 10.03 99.13 17.85 C 101.94 25.81 98.67 34.50 94.22 41.21 C 88.97 49.30 80.51 54.28 73.52 60.66 C 71.87 61.89 74.68 62.78 75.47 63.13 C 75.56 63.81 75.75 65.18 75.84 65.86 C 74.14 65.39 72.45 64.87 70.78 64.32 C 70.55 63.67 70.08 62.37 69.85 61.73 C 66.51 64.23 62.93 66.38 59.44 68.66 C 60.22 72.82 61.54 76.88 63.67 80.55 C 65.60 80.53 67.52 80.52 69.44 80.53 C 69.54 83.73 69.01 87.02 69.77 90.16 C 71.15 90.87 73.08 90.67 74.10 91.94 C 74.16 94.79 74.82 97.99 73.61 100.65 C 61.12 101.01 48.57 100.90 36.08 100.69 C 34.67 97.84 35.64 94.04 35.76 90.86 C 37.09 90.77 38.41 90.69 39.73 90.59 C 40.39 87.26 40.20 83.86 40.20 80.49 C 42.14 80.50 44.08 80.51 46.02 80.51 C 47.90 76.67 49.76 72.69 49.87 68.32 C 46.40 66.33 42.91 64.31 39.95 61.58 C 39.56 64.77 36.22 65.44 33.58 65.75 C 33.08 63.14 34.86 62.41 37.01 62.11 C 32.25 56.14 25.12 52.60 20.01 46.94 C 14.01 40.51 9.13 32.07 9.55 23.02 C 10.15 19.16 11.24 13.25 16.22 13.27 C 20.66 10.17 26.50 13.60 29.26 17.39 C 29.29 16.73 29.36 15.41 29.39 14.75 C 37.34 12.35 45.76 12.39 53.99 12.14 C 62.35 12.28 70.87 12.31 79.01 14.40 C 80.73 14.73 80.20 16.69 80.49 17.94 M 16.86 14.41 C 14.92 16.09 12.98 17.76 11.26 19.67 C 11.52 27.69 13.91 35.76 19.13 41.98 C 24.45 47.99 30.65 53.19 37.01 58.06 C 31.44 48.69 29.47 37.66 29.21 26.88 C 28.34 29.38 26.78 32.13 23.70 31.54 C 23.66 30.57 23.59 28.64 23.55 27.67 C 24.50 27.18 25.45 26.69 26.41 26.20 C 27.69 22.91 27.34 18.74 24.64 16.24 C 22.57 14.28 19.50 14.52 16.86 14.41 M 83.64 17.83 C 81.92 20.96 81.55 26.33 85.82 27.51 C 85.78 28.95 85.74 30.39 85.67 31.83 C 82.75 31.80 81.31 29.30 80.40 26.88 C 80.01 37.90 78.13 49.31 72.05 58.72 C 78.47 53.26 85.31 48.15 90.74 41.65 C 95.30 35.83 98.35 28.48 97.80 20.99 C 97.39 14.46 86.78 12.08 83.64 17.83 M 53.93 18.37 C 52.86 20.91 50.43 22.82 47.86 20.66 C 47.32 20.97 46.25 21.58 45.71 21.89 C 45.60 23.24 46.15 24.81 45.28 26.01 C 43.97 26.68 42.57 27.15 41.31 27.92 C 41.26 29.87 42.72 31.32 43.57 32.94 C 42.81 33.99 41.70 34.86 41.30 36.12 C 41.14 37.71 42.78 38.20 43.84 38.90 C 44.40 38.24 44.95 37.58 45.50 36.91 C 41.53 29.69 48.95 20.52 56.82 22.40 C 57.40 21.99 57.96 21.57 58.53 21.15 C 57.11 20.04 55.85 18.52 53.93 18.37 M 59.05 21.63 C 59.05 22.02 59.05 22.79 59.06 23.17 C 64.86 25.41 67.30 33.51 63.31 38.43 C 65.09 39.40 66.78 38.23 68.38 37.46 C 68.37 37.01 68.33 36.11 68.31 35.66 C 67.67 34.82 67.07 33.95 66.49 33.07 C 66.54 31.49 67.87 30.38 68.43 28.98 C 68.34 26.91 65.75 26.85 64.41 25.91 C 63.55 24.54 64.07 22.81 63.42 21.38 C 62.15 20.08 60.42 21.29 59.05 21.63 M 51.25 24.16 C 47.87 25.65 45.44 29.28 45.63 33.01 C 45.87 37.73 50.16 41.98 54.98 41.72 C 61.18 41.94 66.17 34.57 63.28 28.98 C 61.43 24.44 55.72 22.11 51.25 24.16 M 48.04 44.87 C 49.26 43.92 50.49 42.97 51.72 42.03 C 49.40 41.95 47.48 40.56 46.79 38.33 C 44.94 40.46 45.24 43.71 48.04 44.87 M 62.04 39.46 L 61.23 40.87 C 60.49 41.16 59.03 41.74 58.29 42.03 C 59.77 43.25 61.12 45.20 63.30 44.18 C 64.58 42.40 63.65 40.50 62.04 39.46 M 39.24 50.91 C 41.19 50.79 43.14 50.67 45.09 50.55 C 46.05 52.04 46.58 53.98 48.08 55.03 C 49.49 53.28 50.31 51.16 51.35 49.19 C 51.68 47.92 53.53 46.16 51.95 45.10 C 49.97 43.34 47.21 46.87 45.46 44.62 C 45.20 43.31 44.99 41.98 44.83 40.65 C 42.59 43.85 41.11 47.49 39.24 50.91 M 64.67 40.31 C 64.25 41.76 65.47 44.57 63.42 45.29 C 61.26 45.77 58.59 43.20 57.09 45.95 C 57.93 49.22 59.79 52.11 61.39 55.05 C 62.98 53.92 63.67 51.98 64.73 50.41 C 66.66 50.65 68.60 50.89 70.53 51.20 C 68.50 47.61 67.01 43.73 64.67 40.31 M 51.26 43.77 C 51.99 44.47 53.45 45.87 54.18 46.57 C 56.20 47.09 57.22 44.48 58.76 43.71 C 56.42 42.36 53.56 42.31 51.26 43.77 Z" />
<path fill="#231f20" opacity="1.00" d=" M 52.82 29.44 C 53.49 28.15 54.19 26.88 54.89 25.61 C 55.56 26.92 56.22 28.25 56.88 29.57 C 58.51 29.89 60.14 30.22 61.77 30.54 C 60.57 31.57 59.40 32.61 58.23 33.67 C 58.49 35.11 58.75 36.56 59.01 38.01 C 57.63 37.43 56.33 36.57 54.84 36.32 C 53.28 36.60 51.89 37.43 50.41 37.95 C 50.68 36.90 51.22 34.81 51.48 33.77 C 50.31 32.70 49.12 31.64 47.94 30.58 C 49.56 30.19 51.19 29.82 52.82 29.44 Z" />
</g>
</svg>
